HIERARCHY
ROOT Root
{
  OFFSET 0.0 0.0 0.0
  CHANNELS 6 Xposition Yposition Zposition Zrotation Yrotation Xrotation
  JOINT Hips
  {
    OFFSET 0.0 100.0 0.0
    CHANNELS 6 Xposition Yposition Zposition Zrotation Yrotation Xrotation
    JOINT Spine1
    {
      OFFSET -0.013727 5.003763 -0.053727
      CHANNELS 3 Zrotation Yrotation Xrotation
      JOINT Spine2
      {
        OFFSET -0.0 7.125301 -0.029825
        CHANNELS 3 Zrotation Yrotation Xrotation
        JOINT Chest
        {
          OFFSET -1e-06 7.550063 -0.815971
          CHANNELS 3 Zrotation Yrotation Xrotation
          JOINT Neck1
          {
            OFFSET -0.181677 26.311295 -0.553348
            CHANNELS 3 Zrotation Yrotation Xrotation
            JOINT Neck2
            {
              OFFSET -3e-06 7.709397 2.302585
              CHANNELS 3 Zrotation Yrotation Xrotation
              JOINT Head
              {
                OFFSET -5e-06 6.128916 1.953709
                CHANNELS 3 Zrotation Yrotation Xrotation
                JOINT HeadEnd
                {
                  OFFSET 0.003598 16.065403 -1.835379
                  CHANNELS 3 Zrotation Yrotation Xrotation
                }
                JOINT Jaw
                {
                  OFFSET 0.002637 0.475592 3.094941
                  CHANNELS 3 Zrotation Yrotation Xrotation
                }
                JOINT LeftEye
                {
                  OFFSET 3.206381 5.380205 7.586883
                  CHANNELS 3 Zrotation Yrotation Xrotation
                }
                JOINT RightEye
                {
                  OFFSET -3.22244 5.361869 7.558234
                  CHANNELS 3 Zrotation Yrotation Xrotation
                }
              }
            }
          }
          JOINT LeftShoulder
          {
            OFFSET 1.621652 23.237164 5.113413
            CHANNELS 3 Zrotation Yrotation Xrotation
            JOINT LeftArm
            {
              OFFSET 14.919846 2e-06 -5.502326
              CHANNELS 3 Zrotation Yrotation Xrotation
              JOINT LeftForeArm
              {
                OFFSET 28.739307 0.0 -0.002588
                CHANNELS 3 Zrotation Yrotation Xrotation
                JOINT LeftHand
                {
                  OFFSET 27.093981 -1e-06 0.002609
                  CHANNELS 3 Zrotation Yrotation Xrotation
                  JOINT LeftHandThumb1
                  {
                    OFFSET 2.276482 -1.392045 3.191413
                    CHANNELS 3 Zrotation Yrotation Xrotation
                    JOINT LeftHandThumb2
                    {
                      OFFSET 4.012836 -1.828127 1.641654
                      CHANNELS 3 Zrotation Yrotation Xrotation
                      JOINT LeftHandThumb3
                      {
                        OFFSET 2.798515 0.0 -3e-06
                        CHANNELS 3 Zrotation Yrotation Xrotation
                        JOINT LeftHandThumbEnd
                        {
                          OFFSET 3.180793 -4e-06 4e-06
                          CHANNELS 3 Zrotation Yrotation Xrotation
                        }
                      }
                    }
                  }
                  JOINT LeftHandIndex1
                  {
                    OFFSET 3.247555 -0.531998 2.296169
                    CHANNELS 3 Zrotation Yrotation Xrotation
                    JOINT LeftHandIndex2
                    {
                      OFFSET 6.364578 0.01206 0.1786
                      CHANNELS 3 Zrotation Yrotation Xrotation
                      JOINT LeftHandIndex3
                      {
                        OFFSET 3.662364 0.0 0.0
                        CHANNELS 3 Zrotation Yrotation Xrotation
                        JOINT LeftHandIndex4
                        {
                          OFFSET 2.329242 4e-06 4e-06
                          CHANNELS 3 Zrotation Yrotation Xrotation
                          JOINT LeftHandIndexEnd
                          {
                            OFFSET 2.759615 -0.180537 -0.113024
                            CHANNELS 3 Zrotation Yrotation Xrotation
                          }
                        }
                      }
                    }
                  }
                  JOINT LeftHandMiddle1
                  {
                    OFFSET 3.163495 0.240981 1.000332
                    CHANNELS 3 Zrotation Yrotation Xrotation
                    JOINT LeftHandMiddle2
                    {
                      OFFSET 6.19078 -0.259278 -1.002548
                      CHANNELS 3 Zrotation Yrotation Xrotation
                      JOINT LeftHandMiddle3
                      {
                        OFFSET 4.35652 -4e-06 -1e-06
                        CHANNELS 3 Zrotation Yrotation Xrotation
                        JOINT LeftHandMiddle4
                        {
                          OFFSET 2.996877 -8e-06 0.0
                          CHANNELS 3 Zrotation Yrotation Xrotation
                          JOINT LeftHandMiddleEnd
                          {
                            OFFSET 2.304287 -0.294569 -0.031741
                            CHANNELS 3 Zrotation Yrotation Xrotation
                          }
                        }
                      }
                    }
                  }
                  JOINT LeftHandRing1
                  {
                    OFFSET 2.882643 -0.053652 -0.322543
                    CHANNELS 3 Zrotation Yrotation Xrotation
                    JOINT LeftHandRing2
                    {
                      OFFSET 5.854541 -0.486202 -1.373841
                      CHANNELS 3 Zrotation Yrotation Xrotation
                      JOINT LeftHandRing3
                      {
                        OFFSET 4.350578 0.0 3e-06
                        CHANNELS 3 Zrotation Yrotation Xrotation
                        JOINT LeftHandRing4
                        {
                          OFFSET 2.651321 7e-06 2e-06
                          CHANNELS 3 Zrotation Yrotation Xrotation
                          JOINT LeftHandRingEnd
                          {
                            OFFSET 1.936105 0.077687 -7.1e-05
                            CHANNELS 3 Zrotation Yrotation Xrotation
                          }
                        }
                      }
                    }
                  }
                  JOINT LeftHandPinky1
                  {
                    OFFSET 2.8655 -0.310005 -1.600378
                    CHANNELS 3 Zrotation Yrotation Xrotation
                    JOINT LeftHandPinky2
                    {
                      OFFSET 5.087849 -1.331141 -1.77123
                      CHANNELS 3 Zrotation Yrotation Xrotation
                      JOINT LeftHandPinky3
                      {
                        OFFSET 3.070974 4e-06 0.0
                        CHANNELS 3 Zrotation Yrotation Xrotation
                        JOINT LeftHandPinky4
                        {
                          OFFSET 1.549672 0.0 1e-06
                          CHANNELS 3 Zrotation Yrotation Xrotation
                          JOINT LeftHandPinkyEnd
                          {
                            OFFSET 1.944893 -0.157802 0.057219
                            CHANNELS 3 Zrotation Yrotation Xrotation
                          }
                        }
                      }
                    }
                  }
                }
              }
            }
          }
          JOINT RightShoulder
          {
            OFFSET -1.380118 23.180309 5.214158
            CHANNELS 3 Zrotation Yrotation Xrotation
            JOINT RightArm
            {
              OFFSET -15.037196 1.2e-05 -5.545604
              CHANNELS 3 Zrotation Yrotation Xrotation
              JOINT RightForeArm
              {
                OFFSET -28.736639 2e-06 -0.002597
                CHANNELS 3 Zrotation Yrotation Xrotation
                JOINT RightHand
                {
                  OFFSET -27.133619 -0.0 0.002613
                  CHANNELS 3 Zrotation Yrotation Xrotation
                  JOINT RightHandThumb1
                  {
                    OFFSET -2.274032 -1.383988 3.163127
                    CHANNELS 3 Zrotation Yrotation Xrotation
                    JOINT RightHandThumb2
                    {
                      OFFSET -4.011429 -1.827466 1.640914
                      CHANNELS 3 Zrotation Yrotation Xrotation
                      JOINT RightHandThumb3
                      {
                        OFFSET -2.794935 -4e-06 -3e-06
                        CHANNELS 3 Zrotation Yrotation Xrotation
                        JOINT RightHandThumbEnd
                        {
                          OFFSET -3.183852 4e-06 1e-06
                          CHANNELS 3 Zrotation Yrotation Xrotation
                        }
                      }
                    }
                  }
                  JOINT RightHandIndex1
                  {
                    OFFSET -3.253266 -0.520057 2.282866
                    CHANNELS 3 Zrotation Yrotation Xrotation
                    JOINT RightHandIndex2
                    {
                      OFFSET -6.341917 0.012471 0.178266
                      CHANNELS 3 Zrotation Yrotation Xrotation
                      JOINT RightHandIndex3
                      {
                        OFFSET -3.654871 -8e-06 -0.0
                        CHANNELS 3 Zrotation Yrotation Xrotation
                        JOINT RightHandIndex4
                        {
                          OFFSET -2.327586 0.0 1e-06
                          CHANNELS 3 Zrotation Yrotation Xrotation
                          JOINT RightHandIndexEnd
                          {
                            OFFSET -2.76179 -0.180656 -0.113078
                            CHANNELS 3 Zrotation Yrotation Xrotation
                          }
                        }
                      }
                    }
                  }
                  JOINT RightHandMiddle1
                  {
                    OFFSET -3.168106 0.246593 1.00103
                    CHANNELS 3 Zrotation Yrotation Xrotation
                    JOINT RightHandMiddle2
                    {
                      OFFSET -6.180828 -0.258836 -1.000895
                      CHANNELS 3 Zrotation Yrotation Xrotation
                      JOINT RightHandMiddle3
                      {
                        OFFSET -4.348901 0.0 -0.0
                        CHANNELS 3 Zrotation Yrotation Xrotation
                        JOINT RightHandMiddle4
                        {
                          OFFSET -3.00024 -4e-06 -2e-06
                          CHANNELS 3 Zrotation Yrotation Xrotation
                          JOINT RightHandMiddleEnd
                          {
                            OFFSET -2.30252 -0.29437 -0.031706
                            CHANNELS 3 Zrotation Yrotation Xrotation
                          }
                        }
                      }
                    }
                  }
                  JOINT RightHandRing1
                  {
                    OFFSET -2.88569 -0.067952 -0.308858
                    CHANNELS 3 Zrotation Yrotation Xrotation
                    JOINT RightHandRing2
                    {
                      OFFSET -5.854198 -0.48613 -1.373731
                      CHANNELS 3 Zrotation Yrotation Xrotation
                      JOINT RightHandRing3
                      {
                        OFFSET -4.33881 -4e-06 -0.0
                        CHANNELS 3 Zrotation Yrotation Xrotation
                        JOINT RightHandRing4
                        {
                          OFFSET -2.654903 -4e-06 4e-06
                          CHANNELS 3 Zrotation Yrotation Xrotation
                          JOINT RightHandRingEnd
                          {
                            OFFSET -1.933568 0.077527 -5.2e-05
                            CHANNELS 3 Zrotation Yrotation Xrotation
                          }
                        }
                      }
                    }
                  }
                  JOINT RightHandPinky1
                  {
                    OFFSET -2.866425 -0.342796 -1.584145
                    CHANNELS 3 Zrotation Yrotation Xrotation
                    JOINT RightHandPinky2
                    {
                      OFFSET -5.091371 -1.332055 -1.772385
                      CHANNELS 3 Zrotation Yrotation Xrotation
                      JOINT RightHandPinky3
                      {
                        OFFSET -3.062664 -4e-06 1e-06
                        CHANNELS 3 Zrotation Yrotation Xrotation
                        JOINT RightHandPinky4
                        {
                          OFFSET -1.546529 4e-06 -2e-06
                          CHANNELS 3 Zrotation Yrotation Xrotation
                          JOINT RightHandPinkyEnd
                          {
                            OFFSET -1.945119 -0.157718 0.057211
                            CHANNELS 3 Zrotation Yrotation Xrotation
                          }
                        }
                      }
                    }
                  }
                }
              }
            }
          }
        }
      }
    }
    JOINT LeftLeg
    {
      OFFSET 10.043214 -8.434526 2.595655
      CHANNELS 3 Zrotation Yrotation Xrotation
      JOINT LeftShin
      {
        OFFSET -1e-06 -43.221752 -0.802913
        CHANNELS 3 Zrotation Yrotation Xrotation
        JOINT LeftFoot
        {
          OFFSET 1e-06 -42.155094 -3.481523
          CHANNELS 3 Zrotation Yrotation Xrotation
          JOINT LeftToeBase
          {
            OFFSET 0.0 -5.059472 13.231529
            CHANNELS 3 Zrotation Yrotation Xrotation
            JOINT LeftToeEnd
            {
              OFFSET -0.009607 -1.647619 6.513017
              CHANNELS 3 Zrotation Yrotation Xrotation
            }
          }
        }
      }
    }
    JOINT RightLeg
    {
      OFFSET -10.047278 -8.29526 2.620317
      CHANNELS 3 Zrotation Yrotation Xrotation
      JOINT RightShin
      {
        OFFSET 1e-06 -43.362206 -0.805556
        CHANNELS 3 Zrotation Yrotation Xrotation
        JOINT RightFoot
        {
          OFFSET 2e-06 -42.117393 -3.478398
          CHANNELS 3 Zrotation Yrotation Xrotation
          JOINT RightToeBase
          {
            OFFSET -0.0 -5.079609 13.284196
            CHANNELS 3 Zrotation Yrotation Xrotation
            JOINT RightToeEnd
            {
              OFFSET 0.009532 -1.634378 6.460591
              CHANNELS 3 Zrotation Yrotation Xrotation
            }
          }
        }
      }
    }
  }
}
MOTION
Frames: 4
Frame Time: 0.03333333333333333
0.0 0.0 0.0 0.0 -0.0 0.0 207.854202 20.882452 73.141624 57.298431 1.893591 90.827515 -9.810454 -4.20735 9.086694 -3.630497 -5.380185 -0.656643 -16.786219 -13.237331 14.474805 0.023467 2.773532 -25.316683 -0.561132 -4.591465 -2.737298 -6.407649 -7.199605 20.644329 7.7e-05 -2.3e-05 6e-06 0.451219 0.055556 -0.227335 1.637122 -3.590213 -11.249696 -0.73617 3.695056 -11.309558 1.481925 -35.355141 13.541231 -44.686504 -47.590794 -10.40336 -179.162979 -43.408833 177.550369 14.544928 -7.915126 57.367264 -5.882112 9.861297 0.702587 -10.936881 -0.360576 7.156211 0.0 8.774835 -2e-06 -15.402941 17.993805 6.720415 -1.844034 2.498508 -2.507279 -10.163608 4.678949 4.62111 -20.976044 -4e-06 1e-06 -21.226309 2.451699 -3.594005 -1e-06 -6e-06 0.0 -1.362683 2.2408 -0.746323 -21.334934 0.58491 3.008322 -13.821226 -2e-06 -0.0 -23.88719 -0.24908 -0.839485 -61.458717 3.074031 -0.23684 -0.294025 1.679689 0.833256 -14.218221 0.093215 1.300579 -34.212078 -0.287567 0.967167 -20.03323 0.964534 1.212843 -0.0 0.0 1e-06 -3.440391 0.788234 0.501655 -15.928201 -3.167314 2.999707 -6.338831 -1e-06 -0.0 -18.123461 3.648185 -4.905677 -4e-06 -0.0 -2e-06 6.399045 -0.338315 11.071803 23.226797 -11.311404 -58.333019 -179.313416 33.070488 -178.856796 -44.324829 -18.953669 17.325127 2.243546 -5.255042 -3.18016 14.282911 -0.826594 6.952503 -2e-06 -12.690616 -3e-06 16.506836 -17.446405 3.037418 1.665669 -1.955923 -2.878303 4.727804 -4.17059 4.993926 11.020544 2e-06 -2e-06 12.109069 -3.735719 -2.866789 -1e-06 -1e-06 2e-06 1.291988 -1.928552 -1.498091 14.800146 0.567467 3.86561 14.242593 -1.341738 -6.660666 19.631994 0.143927 -0.648247 51.38134 -1.533982 -6.636356 0.353029 -1.511152 -0.031941 20.222818 3.684313 2.31663 18.7873 5e-06 -5e-06 10.751643 -0.479866 1.397905 0.0 1e-06 -1e-06 3.27381 0.305947 -0.58011 21.486843 11.830386 2.266135 8.162938 3e-06 -3e-06 18.399107 -3.798984 -4.940585 3e-06 -0.0 -0.0 -5.682279 25.61101 -84.442703 -7.479271 -1.789231 96.878204 -10.156013 4.143081 2.860438 2.287164 -1.802447 -5.270714 0.0 0.0 2e-06 -4.760354 46.759159 -11.851184 -10.945764 -42.190868 45.779522 -14.895247 -53.172092 -16.52533 -1.38776 0.653969 -18.053719 1e-06 1e-06 -1e-06 
0.0 0.0 0.0 0.0 -0.0 0.0 211.120056 19.805395 72.969894 55.558689 2.080779 91.416656 -10.437074 -3.929728 8.513019 -4.169723 -5.129978 -0.491903 -17.674828 -12.708814 14.474368 0.355921 2.863564 -26.19532 -1.063108 -4.573104 -2.657325 -5.390359 -7.138982 22.83073 7.6e-05 -2.3e-05 6e-06 0.397789 0.051721 -0.20871 1.622833 -3.57597 -11.138422 -0.832687 3.67014 -11.144958 0.395876 -34.695267 13.951337 -50.479309 -50.180012 -0.844269 -178.877945 -44.383488 177.166443 14.268493 -7.656368 61.253368 -5.882108 9.861283 0.70259 -10.936873 -0.360573 7.156207 1e-06 8.774822 -1e-06 -15.768878 17.973906 6.606824 -1.844034 2.498503 -2.507277 -10.163603 4.678945 4.621109 -20.976028 -2e-06 2e-06 -21.226292 2.451696 -3.593999 -0.0 -6e-06 -1e-06 -1.362682 2.240797 -0.746323 -21.334917 0.58491 3.008322 -13.821216 -3e-06 1e-06 -23.887175 -0.24908 -0.839482 -61.678268 3.452051 -0.136458 -0.294026 1.679686 0.833256 -14.218212 0.093215 1.30058 -34.212059 -0.287564 0.96717 -20.033218 0.964537 1.212844 0.0 0.0 1e-06 -3.440389 0.788233 0.501655 -15.928189 -3.167309 2.999707 -6.338828 -1e-06 1e-06 -18.123453 3.648181 -4.905669 -4e-06 0.0 -1e-06 7.633702 -0.314488 11.397057 23.681599 -12.677544 -59.535885 -178.771317 33.942139 -178.938843 -43.42366 -20.347313 17.416185 2.243544 -5.255043 -3.18016 14.282898 -0.826595 6.952504 1e-06 -12.690609 -3e-06 16.627014 -17.280489 3.008225 1.665669 -1.955921 -2.878299 4.727802 -4.17059 4.993925 11.020535 1e-06 -1e-06 12.109058 -3.735718 -2.866786 0.0 -1e-06 0.0 1.291986 -1.928553 -1.49809 14.800136 0.567467 3.865609 14.242581 -1.341742 -6.660663 19.631977 0.143926 -0.648249 51.545151 -1.488329 -6.752584 0.353029 -1.511152 -0.031942 20.222801 3.684309 2.31663 18.787287 2e-06 -3e-06 10.751633 -0.479868 1.397906 -0.0 1e-06 -1e-06 3.273809 0.305946 -0.580112 21.486824 11.830379 2.266137 8.16293 1e-06 -2e-06 18.399097 -3.798989 -4.940581 4e-06 -0.0 -1e-06 -5.401109 22.797459 -92.772598 -6.502471 -1.042033 97.235268 -9.074083 3.99304 7.972431 2.406706 -1.997666 -5.763298 -0.0 -1e-06 2e-06 -2.079593 50.492092 -6.822047 -10.987432 -45.666138 41.782013 -13.331536 -55.797726 -19.475912 -1.403654 0.637621 -21.484198 -1e-06 1e-06 -2e-06 
0.0 0.0 0.0 0.0 -0.0 0.0 214.271088 18.656599 72.867737 53.219353 2.242033 91.703545 -10.769423 -3.510485 7.748806 -4.653275 -4.864591 -0.600892 -18.327589 -12.096195 14.367599 0.674494 2.889148 -27.051079 -1.667952 -4.8178 -2.652613 -4.580749 -6.910505 24.507149 7.7e-05 -2.2e-05 6e-06 0.44259 0.011764 -0.181666 1.68805 -3.571959 -11.031669 -0.810327 3.587997 -10.964194 -0.684056 -33.713566 13.913112 -57.015133 -51.106846 9.031705 -178.53862 -45.120598 177.191132 14.468245 -7.893359 63.202515 -5.882109 9.86129 0.702591 -10.936877 -0.360577 7.156204 1e-06 8.774831 -2e-06 -16.313852 17.541672 5.98504 -1.844034 2.498506 -2.507277 -10.163604 4.678946 4.621108 -20.976034 -5e-06 2e-06 -21.226295 2.451697 -3.594002 -0.0 -6e-06 -2e-06 -1.362682 2.240799 -0.746323 -21.334925 0.584908 3.008322 -13.821219 -4e-06 2e-06 -23.887182 -0.249081 -0.839483 -61.713459 3.532356 -0.309097 -0.294025 1.679688 0.833256 -14.218214 0.093214 1.300581 -34.212059 -0.287568 0.967169 -20.033218 0.964536 1.212844 1e-06 1e-06 2e-06 -3.440391 0.788234 0.501655 -15.928194 -3.167313 2.999708 -6.338829 -2e-06 -1e-06 -18.123457 3.648181 -4.905674 -5e-06 0.0 -0.0 8.524654 -0.334963 11.789906 24.077765 -13.225605 -61.214699 -178.687805 34.838665 -179.232941 -41.984509 -21.744297 16.886415 2.243541 -5.25504 -3.180158 14.282896 -0.826594 6.952504 -1e-06 -12.69061 -2e-06 16.707062 -17.187653 2.950283 1.665667 -1.955921 -2.878299 4.7278 -4.170589 4.993925 11.02053 2e-06 0.0 12.109054 -3.735717 -2.866783 0.0 -1e-06 -0.0 1.291987 -1.928551 -1.498089 14.800132 0.56747 3.865608 14.242576 -1.341737 -6.660657 19.631973 0.143926 -0.648242 51.464737 -1.23796 -6.682107 0.353028 -1.511151 -0.031939 20.222801 3.684313 2.316632 18.787283 6e-06 -0.0 10.751631 -0.479868 1.39791 -0.0 2e-06 -1e-06 3.273808 0.305948 -0.58011 21.486826 11.830384 2.266138 8.16293 2e-06 -0.0 18.399092 -3.798988 -4.940576 3e-06 0.0 -1e-06 -3.807766 20.348633 -98.210121 -5.304257 -0.975024 97.233124 -8.974955 2.566625 16.338787 2.489041 -2.085595 -6.756196 0.0 1e-06 2e-06 2.303785 55.195618 -0.21456 -11.814071 -50.632904 37.607845 -10.761938 -56.669804 -22.433239 -1.360423 0.577199 -21.819204 -1e-06 -0.0 -3e-06 
0.0 0.0 0.0 0.0 -0.0 0.0 217.515945 17.58663 72.948158 50.5844 2.440646 91.986092 -10.865202 -3.360582 6.592344 -4.903084 -4.736639 -0.948908 -18.805775 -11.202047 14.0536 1.068886 2.630787 -28.149544 -2.132993 -4.842173 -2.629778 -4.292605 -6.538441 25.929035 7.8e-05 -2.2e-05 5e-06 0.524806 -0.022861 -0.178074 1.787548 -3.604063 -11.010759 -0.747022 3.550994 -10.871925 -1.962574 -32.446144 13.811408 -62.362484 -50.502983 17.609404 -178.493973 -45.699821 177.743591 15.149392 -8.999794 62.802853 -5.882106 9.861288 0.702592 -10.936877 -0.36058 7.156207 4e-06 8.774832 -0.0 -16.834757 17.285053 5.581484 -1.844032 2.498505 -2.507278 -10.163603 4.678944 4.621109 -20.976034 -1.1e-05 6e-06 -21.226295 2.451693 -3.593996 1e-06 -6e-06 -3e-06 -1.36268 2.240798 -0.746321 -21.334923 0.584903 3.008325 -13.821219 -8e-06 2e-06 -23.887178 -0.249086 -0.839477 -61.844269 3.561843 -0.465596 -0.294025 1.679687 0.833256 -14.218215 0.09321 1.300581 -34.212067 -0.287576 0.967177 -20.033222 0.964532 1.21285 -0.0 2e-06 1e-06 -3.440389 0.788233 0.501654 -15.928192 -3.167316 2.999709 -6.338829 -3e-06 0.0 -18.123453 3.648179 -4.905668 -5e-06 -0.0 -1e-06 9.141562 -0.3555 11.781698 24.140139 -13.042084 -61.750961 -178.462524 35.797092 -179.36557 -40.57478 -22.22183 16.782768 2.243541 -5.255037 -3.180159 14.282894 -0.826593 6.952502 -3e-06 -12.690603 -2e-06 16.79785 -17.196312 2.9974 1.665667 -1.955923 -2.878299 4.727799 -4.170587 4.993923 11.020528 3e-06 -1e-06 12.109053 -3.735713 -2.866785 0.0 0.0 -1e-06 1.291986 -1.928553 -1.49809 14.800134 0.567472 3.865608 14.242577 -1.341735 -6.66066 19.631971 0.143929 -0.648243 51.421566 -1.072887 -6.568991 0.353029 -1.511151 -0.03194 20.222797 3.684311 2.316631 18.787281 9e-06 -0.0 10.751633 -0.479866 1.397906 -0.0 0.0 -0.0 3.273809 0.305948 -0.580109 21.48682 11.830378 2.266137 8.162931 4e-06 -1e-06 18.399088 -3.798981 -4.940577 3e-06 0.0 -2e-06 -1.821144 19.549932 -101.081902 -4.161232 -1.14025 100.920876 -8.610121 4.609949 22.404522 2.724783 -1.989445 -7.019914 -0.0 -0.0 3e-06 7.262188 60.014736 6.744596 -13.756875 -57.209911 35.23431 -8.054932 -55.843346 -24.660028 -1.30079 0.533274 -22.128094 0.0 -0.0 -3e-06 
